<svg xmlns="http://www.w3.org/2000/svg" width="16" height="16.156" viewBox="0 0 16 16.156">
  <metadata><?xpacket begin="﻿" id="W5M0MpCehiHzreSzNTczkc9d"?>
<x:xmpmeta xmlns:x="adobe:ns:meta/" x:xmptk="Adobe XMP Core 5.6-c142 79.160924, 2017/07/13-01:06:39        ">
   <rdf:RDF xmlns:rdf="http://www.w3.org/1999/02/22-rdf-syntax-ns#">
      <rdf:Description rdf:about=""/>
   </rdf:RDF>
</x:xmpmeta>
                                                                                                    
                                                                                                    
                                                                                                    
                                                                                                    
                                                                                                    
                                                                                                    
                                                                                                    
                                                                                                    
                                                                                                    
                                                                                                    
                                                                                                    
                                                                                                    
                                                                                                    
                                                                                                    
                                                                                                    
                                                                                                    
                                                                                                    
                                                                                                    
                                                                                                    
                                                                                                    
                           
<?xpacket end="w"?></metadata>
<defs>
    <style>
      .cls-1 {
        fill: #fff;
        fill-rule: evenodd;
      }
    </style>
  </defs>
  <path id="speech-bubbles" class="cls-1" d="M900,677h8a2,2,0,0,1,2,2v5a2,2,0,0,1-2,2h-8a2,2,0,0,1-2-2v-5A2,2,0,0,1,900,677Zm0.094,8.625v4.531L904,685.875ZM903,674.281h6.75a2,2,0,0,1,2,2v5.688a2,2,0,0,1-2,2H903a2,2,0,0,1-2-2v-5.688A2,2,0,0,1,903,674.281Zm1-.281h8a2,2,0,0,1,2,2v4.968a2,2,0,0,1-2,2h-8a2,2,0,0,1-2-2V676A2,2,0,0,1,904,674Zm8,7.656V687l-3.938-4.032Zm-0.031,5.313-3.531-3.751-1.563.032,3.948,4.344Z" transform="translate(-898 -674)"/>
</svg>
